<svg xmlns="http://www.w3.org/2000/svg" viewBox="127 558.91 1000 136.19" width="1000" height="136.19" role="img" aria-label="THE WORD FOR ALL THE WORLD, bare wordmark">
  <title>THE WORD FOR ALL THE WORLD, bare wordmark</title>
  <!-- Generated by tools/build_logos.py from assets/logos/_masters/the-word-bare.svg. Do not edit by hand. Clear space: 0.5x the cap height of THE WORD (64.64 units here) on all four sides. Minimum width 90px / 20mm. -->
  <g>
    <path fill="#000000" d="M591.75,540.25L597,540.25L597,540.5L600,540.5L600,540.75L602,540.75L602,541L603.25,541L603.25,541.25L604.75,541.25L604.75,541.5L606,541.5L606,541.75L607,541.75L607,542L608,542L608,542.25L608.75,542.25L608.75,542.5L609.75,542.5L609.75,542.75L610.75,542.75L610.75,543L611.5,543L611.5,543.25L612,543.25L612,543.5L612.75,543.5L612.75,543.75L613.5,543.75L613.5,544L614,544L614,544.25L614.5,544.25L614.5,544.5L615,544.5L615,544.75L615.75,544.75L615.75,545L616.5,545L616.5,545.25L617,545.25L617,545.5L617.25,545.5L617.25,545.75L617.75,545.75L617.75,546L618.25,546L618.25,546.25L618.75,546.25L618.75,546.5L619.25,546.5L619.25,546.75L619.75,546.75L619.75,547L620.25,547L620.25,547.25L620.5,547.25L620.5,547.5L621,547.5L621,547.75L621.5,547.75L621.5,548L622,548L622,548.25L622.25,548.25L622.25,548.5L622.5,548.5L622.5,548.75L623,548.75L623,549L623.25,549L623.25,549.25L623.75,549.25L623.75,549.5L624,549.5L624,549.75L624.5,549.75L624.5,550L624.75,550L624.75,550.25L625,550.25L625,550.5L625.25,550.5L625.25,550.75L625.75,550.75L625.75,551L626,551L626,551.25L626.25,551.25L626.25,551.5L626.5,551.5L626.5,551.75L626.75,551.75L626.75,552L627,552L627,552.25L627.25,552.25L627.25,552.5L627.5,552.5L627.5,552.75L627.75,552.75L627.75,553L628.25,553L628.25,553.25L628.5,553.25L628.5,553.5L628.75,553.5L628.75,553.75L629,553.75L629,554L629.25,554L629.25,554.25L629.5,554.25L629.5,554.5L629.75,554.5L629.75,554.75L630,554.75L630,555L630.25,555L630.25,555.25L630.5,555.25L630.5,555.5L630.75,555.5L630.75,555.75L631,555.75L631,556L631.25,556L631.25,556.25L631.5,556.25L631.5,556.5L631.75,556.5L631.75,556.75L632,556.75L632,557L632.25,557L632.25,557.5L632.5,557.5L632.5,557.75L632.75,557.75L632.75,558L633,558L633,558.25L633.25,558.25L633.25,558.75L633.5,558.75L633.5,559L633.75,559L633.75,559.25L634,559.25L634,559.75L634.25,559.75L634.25,560L634.5,560L634.5,560.25L634.75,560.25L634.75,560.75L635,560.75L635,561.25L635.25,561.25L635.25,561.5L635.5,561.5L635.5,561.75L635.75,561.75L635.75,562.25L636,562.25L636,562.75L636.25,562.75L636.25,563.25L636.5,563.25L636.5,563.5L636.75,563.5L636.75,564L637,564L637,564.5L637.25,564.5L637.25,565L637.5,565L637.5,565.25L637.75,565.25L637.75,565.75L638,565.75L638,566.5L638.25,566.5L638.25,567L638.5,567L638.5,567.25L638.75,567.25L638.75,567.75L639,567.75L639,568.5L639.25,568.5L639.25,569L639.5,569L639.5,569.5L639.75,569.5L639.75,570L640,570L640,571L640.25,571L640.25,571.5L640.5,571.5L640.5,572L640.75,572L640.75,572.5L641,572.5L641,573.75L641.25,573.75L641.25,574.75L641.5,574.75L641.5,575.25L641.75,575.25L641.75,576L642,576L642,577.25L642.25,577.25L642.25,578.5L642.5,578.5L642.5,579.25L642.75,579.25L642.75,580.75L643,580.75L643,583L643.25,583L643.25,585L643.5,585L643.5,594L643.25,594L643.25,596.25L643,596.25L643,598.75L642.75,598.75L642.75,600.25L642.5,600.25L642.5,601L642.25,601L642.25,602.25L642,602.25L642,603.5L641.75,603.5L641.75,604.25L641.5,604.25L641.5,604.75L641.25,604.75L641.25,605.75L641,605.75L641,606.75L640.75,606.75L640.75,607.5L640.5,607.5L640.5,607.75L640.25,607.75L640.25,608.5L640,608.5L640,609.25L639.75,609.25L639.75,609.75L639.5,609.75L639.5,610L639.25,610L639.25,610.5L639,610.5L639,611.25L638.75,611.25L638.75,611.75L638.5,611.75L638.5,612.25L638.25,612.25L638.25,612.5L638,612.5L638,613.25L637.75,613.25L637.75,613.75L637.5,613.75L637.5,614L637.25,614L637.25,614.5L637,614.5L637,615L636.75,615L636.75,615.5L636.5,615.5L636.5,615.75L636.25,615.75L636.25,616.25L636,616.25L636,616.75L635.75,616.75L635.75,617.25L635.5,617.25L635.5,617.5L635.25,617.5L635.25,617.75L635,617.75L635,618.25L634.75,618.25L634.75,618.75L634.5,618.75L634.5,619L634.25,619L634.25,619.25L634,619.25L634,619.75L633.75,619.75L633.75,620L633.5,620L633.5,620.25L633.25,620.25L633.25,620.5L633,620.5L633,621L632.75,621L632.75,621.25L632.5,621.25L632.5,621.5L632.25,621.5L632.25,621.75L632,621.75L632,622.25L631.75,622.25L631.75,622.5L631.5,622.5L631.5,622.75L631.25,622.75L631.25,623L631,623L631,623.25L630.75,623.25L630.75,623.5L630.5,623.5L630.5,623.75L630.25,623.75L630.25,624L630,624L630,624.5L629.75,624.5L629.75,624.75L629.5,624.75L629.5,625L629,625L629,625.5L628.75,625.5L628.75,625.75L628.5,625.75L628.5,626L628,626L628,626.25L627.75,626.25L627.75,626.5L627.5,626.5L627.5,626.75L627.25,626.75L627.25,627L627,627L627,627.25L626.75,627.25L626.75,627.5L626.5,627.5L626.5,627.75L626,627.75L626,628L625.75,628L625.75,628.25L625.5,628.25L625.5,628.5L625.25,628.5L625.25,628.75L624.75,628.75L624.75,629L624.5,629L624.5,629.25L624,629.25L624,629.5L623.75,629.5L623.75,629.75L623.5,629.75L623.5,630L623,630L623,630.25L622.75,630.25L622.75,630.5L622.5,630.5L622.5,630.75L622,630.75L622,631L621.5,631L621.5,631.25L621,631.25L621,631.5L620.75,631.5L620.75,631.75L620.5,631.75L620.5,632L619.75,632L619.75,632.25L619.5,632.25L619.5,632.5L619,632.5L619,632.75L618.75,632.75L618.75,633L618,633L618,633.25L617.75,633.25L617.75,633.5L617.25,633.5L617.25,633.75L616.75,633.75L616.75,634L616.25,634L616.25,634.25L615.75,634.25L615.75,634.5L615.25,634.5L615.25,634.75L614.75,634.75L614.75,635L613.75,635L613.75,635.25L613.25,635.25L613.25,635.5L612.75,635.5L612.75,635.75L612,635.75L612,636L611,636L611,636.25L610.25,636.25L610.25,636.5L610,636.5L610,636.75L609,636.75L609,637L607.75,637L607.75,637.25L606.75,637.25L606.75,637.5L605.75,637.5L605.75,637.75L604.75,637.75L604.75,638L603,638L603,638.25L600.75,638.25L600.75,638.5L599.25,638.5L599.25,638.75L598,638.75L598,638.5L597.5,638.5L597.5,638L597.25,638L597.25,630.5L597.5,630.5L597.5,630.25L597.75,630.25L597.75,630L600,630L600,629.75L601.25,629.75L601.25,629.5L602.25,629.5L602.25,629.25L603.25,629.25L603.25,629L604.75,629L604.75,628.75L605.25,628.75L605.25,628.5L605.75,628.5L605.75,628.25L606.75,628.25L606.75,628L607.5,628L607.5,627.75L608.25,627.75L608.25,627.5L608.5,627.5L608.5,627.25L609.25,627.25L609.25,627L610.25,627L610.25,626.75L610.75,626.75L610.75,626.5L611,626.5L611,626.25L611.5,626.25L611.5,626L612.25,626L612.25,625.75L612.5,625.75L612.5,625.5L613,625.5L613,625.25L613.5,625.25L613.5,625L614,625L614,624.75L614.25,624.75L614.25,624.5L614.75,624.5L614.75,624.25L615,624.25L615,624L615.5,624L615.5,623.75L615.75,623.75L615.75,623.5L616,623.5L616,623.25L616.25,623.25L616.25,623L616.75,623L616.75,622.75L617,622.75L617,622.5L617.25,622.5L617.25,622.25L617.5,622.25L617.5,622L617.75,622L617.75,621.75L618,621.75L618,621.5L618.25,621.5L618.25,621.25L618.75,621.25L618.75,621L619,621L619,620.75L619.25,620.75L619.25,620.5L619.5,620.5L619.5,620.25L619.75,620.25L619.75,620L620,620L620,619.75L620.25,619.75L620.25,619.25L620.5,619.25L620.5,619L620.75,619L620.75,618.75L621,618.75L621,618.5L621.25,618.5L621.25,618.25L621.5,618.25L621.5,618L621.75,618L621.75,617.75L622,617.75L622,617.25L622.25,617.25L622.25,617L622.5,617L622.5,616.75L622.75,616.75L622.75,616.5L623,616.5L623,616L623.25,616L623.25,615.5L623.5,615.5L623.5,615.25L623.75,615.25L623.75,615L624,615L624,614.5L624.25,614.5L624.25,614L624.5,614L624.5,613.75L624.75,613.75L624.75,613.25L625,613.25L625,612.5L625.25,612.5L625.25,612L625.5,612L625.5,611.75L625.75,611.75L625.75,611.25L626,611.25L626,610.25L626.25,610.25L626.25,609.75L626.5,609.75L626.5,609.25L626.75,609.25L626.75,608.25L627,608.25L627,607.25L627.25,607.25L627.25,606L627.5,606L627.5,605L627.75,605L627.75,594.25L627.5,594.25L627.5,593.75L627.25,593.75L627.25,593.25L627,593.25L627,593L626.75,593L626.75,592.75L626.25,592.75L626.25,592.5L626,592.5L626,592.25L625.75,592.25L625.75,592L624.75,592L624.75,591.75L623.5,591.75L623.5,592L622.5,592L622.5,592.25L622.25,592.25L622.25,592.5L621.75,592.5L621.75,592.75L621.5,592.75L621.5,593L621.25,593L621.25,593.25L621,593.25L621,593.75L620.75,593.75L620.75,594.5L620.5,594.5L620.5,603.5L620.25,603.5L620.25,604.75L620,604.75L620,606.25L619.75,606.25L619.75,607.25L619.5,607.25L619.5,607.75L619.25,607.75L619.25,608.25L619,608.25L619,609.25L618.75,609.25L618.75,609.75L618.5,609.75L618.5,610.25L618.25,610.25L618.25,610.5L618,610.5L618,611.25L617.75,611.25L617.75,611.75L617.5,611.75L617.5,612L617.25,612L617.25,612.5L617,612.5L617,612.75L616.75,612.75L616.75,613.25L616.5,613.25L616.5,613.5L616.25,613.5L616.25,613.75L616,613.75L616,614.25L615.75,614.25L615.75,614.5L615.5,614.5L615.5,614.75L615.25,614.75L615.25,615L615,615L615,615.5L614.75,615.5L614.75,615.75L614.5,615.75L614.5,616L614,616L614,616.5L613.75,616.5L613.75,616.75L613.25,616.75L613.25,617L613,617L613,617.25L612.75,617.25L612.75,617.5L612.5,617.5L612.5,617.75L612,617.75L612,618L611.5,618L611.5,618.25L611.25,618.25L611.25,618.5L611,618.5L611,618.75L610.75,618.75L610.75,619L610.25,619L610.25,619.25L610,619.25L610,619.5L609.75,619.5L609.75,619.75L609.25,619.75L609.25,620L608.5,620L608.5,620.25L608.25,620.25L608.25,620.5L608,620.5L608,620.75L607.5,620.75L607.5,621L606.75,621L606.75,621.25L606.25,621.25L606.25,621.5L605.75,621.5L605.75,621.75L605.25,621.75L605.25,622L604.25,622L604.25,622.25L603.75,622.25L603.75,622.5L603.25,622.5L603.25,622.75L602.25,622.75L602.25,623L601.25,623L601.25,623.25L600,623.25L600,623.5L598.75,623.5L598.75,623.75L597.5,623.75L597.5,624L590,624L590,623.75L588.5,623.75L588.5,623.5L587.25,623.5L587.25,623.25L586.25,623.25L586.25,623L585,623L585,622.75L584.25,622.75L584.25,622.5L583.75,622.5L583.75,622.25L583.25,622.25L583.25,622L582.25,622L582.25,621.75L581.5,621.75L581.5,621.5L581,621.5L581,621.25L580.5,621.25L580.5,621L579.75,621L579.75,620.75L579.25,620.75L579.25,620.5L579,620.5L579,620.25L578.5,620.25L578.5,620L578,620L578,619.75L577.5,619.75L577.5,619.5L577.25,619.5L577.25,619.25L577,619.25L577,619L576.5,619L576.5,618.75L576.25,618.75L576.25,618.5L576,618.5L576,618.25L575.5,618.25L575.5,618L575.25,618L575.25,617.75L575,617.75L575,617.5L574.75,617.5L574.75,617.25L574.5,617.25L574.5,617L574,617L574,616.75L573.75,616.75L573.75,616.5L573.5,616.5L573.5,616.25L573.25,616.25L573.25,616L573,616L573,615.75L572.75,615.75L572.75,615.5L572.5,615.5L572.5,615.25L572.25,615.25L572.25,615L572,615L572,614.75L571.75,614.75L571.75,614.25L571.5,614.25L571.5,614L571.25,614L571.25,613.75L571,613.75L571,613.25L570.75,613.25L570.75,613L570.5,613L570.5,612.75L570.25,612.75L570.25,612.25L570,612.25L570,611.75L569.75,611.75L569.75,611.5L569.5,611.5L569.5,611L569.25,611L569.25,610.5L569,610.5L569,609.75L568.75,609.75L568.75,609.25L568.5,609.25L568.5,608.75L568.25,608.75L568.25,608.25L568,608.25L568,607.25L567.75,607.25L567.75,606.25L567.5,606.25L567.5,605.25L567.25,605.25L567.25,604.25L567,604.25L567,594.5L566.75,594.5L566.75,593.75L566.5,593.75L566.5,593.5L566.25,593.5L566.25,593.25L566,593.25L566,593L565.75,593L565.75,592.75L565.5,592.75L565.5,592.5L565.25,592.5L565.25,592.25L564.75,592.25L564.75,592L564,592L564,591.75L562,591.75L562,592L561.25,592L561.25,592.25L561,592.25L561,592.5L560.75,592.5L560.75,592.75L560.5,592.75L560.5,593L560,593L560,593.5L559.75,593.5L559.75,594L559.5,594L559.5,604.25L559.75,604.25L559.75,605.75L560,605.75L560,606.75L560.25,606.75L560.25,607.5L560.5,607.5L560.5,608.25L560.75,608.25L560.75,609.25L561,609.25L561,610L561.25,610L561.25,610.5L561.5,610.5L561.5,611L561.75,611L561.75,611.75L562,611.75L562,612.25L562.25,612.25L562.25,612.75L562.5,612.75L562.5,613.25L562.75,613.25L562.75,613.75L563,613.75L563,614.25L563.25,614.25L563.25,614.5L563.5,614.5L563.5,615L563.75,615L563.75,615.5L564,615.5L564,615.75L564.25,615.75L564.25,616L564.5,616L564.5,616.5L564.75,616.5L564.75,616.75L565,616.75L565,617.25L565.25,617.25L565.25,617.5L565.5,617.5L565.5,617.75L565.75,617.75L565.75,618L566,618L566,618.5L566.25,618.5L566.25,618.75L566.5,618.75L566.5,619L566.75,619L566.75,619.25L567,619.25L567,619.5L567.25,619.5L567.25,619.75L567.5,619.75L567.5,620L567.75,620L567.75,620.25L568,620.25L568,620.75L568.25,620.75L568.25,621L568.75,621L568.75,621.25L569,621.25L569,621.5L569.25,621.5L569.25,621.75L569.5,621.75L569.5,622L569.75,622L569.75,622.25L570,622.25L570,622.5L570.25,622.5L570.25,622.75L570.5,622.75L570.5,623L571,623L571,623.25L571.25,623.25L571.25,623.5L571.5,623.5L571.5,623.75L572,623.75L572,624L572.25,624L572.25,624.25L572.75,624.25L572.75,624.5L573,624.5L573,624.75L573.5,624.75L573.5,625L574,625L574,625.25L574.5,625.25L574.5,625.5L574.75,625.5L574.75,625.75L575,625.75L575,626L575.75,626L575.75,626.25L576.25,626.25L576.25,626.5L576.5,626.5L576.5,626.75L577,626.75L577,627L577.75,627L577.75,627.25L578.25,627.25L578.25,627.5L578.75,627.5L578.75,627.75L579.25,627.75L579.25,628L580.25,628L580.25,628.25L581.25,628.25L581.25,628.5L581.75,628.5L581.75,628.75L582.5,628.75L582.5,629L583.75,629L583.75,629.25L584.75,629.25L584.75,629.5L585.5,629.5L585.5,629.75L586.5,629.75L586.5,630L589.25,630L589.25,630.25L589.75,630.25L589.75,630.75L590,630.75L590,638.5L589.75,638.5L589.75,638.75L587.75,638.75L587.75,638.5L586.75,638.5L586.75,638.25L585.5,638.25L585.5,638L583.5,638L583.5,637.75L582.25,637.75L582.25,637.5L581.5,637.5L581.5,637.25L580.5,637.25L580.5,637L579,637L579,636.75L578.25,636.75L578.25,636.5L577.75,636.5L577.75,636.25L577,636.25L577,636L576,636L576,635.75L575.25,635.75L575.25,635.5L574.75,635.5L574.75,635.25L574.25,635.25L574.25,635L573.25,635L573.25,634.75L572.75,634.75L572.75,634.5L572.25,634.5L572.25,634.25L571.75,634.25L571.75,634L571,634L571,633.75L570.5,633.75L570.5,633.5L570.25,633.5L570.25,633.25L569.75,633.25L569.75,633L569,633L569,632.75L568.75,632.75L568.75,632.5L568.25,632.5L568.25,632.25L568,632.25L568,632L567.5,632L567.5,631.75L567,631.75L567,631.5L566.75,631.5L566.75,631.25L566.25,631.25L566.25,631L565.75,631L565.75,630.75L565.5,630.75L565.5,630.5L565,630.5L565,630.25L564.75,630.25L564.75,630L564.25,630L564.25,629.75L564,629.75L564,629.5L563.75,629.5L563.75,629.25L563.25,629.25L563.25,629L563,629L563,628.75L562.5,628.75L562.5,628.5L562.25,628.5L562.25,628.25L562,628.25L562,628L561.75,628L561.75,627.75L561.25,627.75L561.25,627.5L561,627.5L561,627.25L560.75,627.25L560.75,627L560.5,627L560.5,626.75L560.25,626.75L560.25,626.5L560,626.5L560,626.25L559.75,626.25L559.75,626L559.25,626L559.25,625.75L559,625.75L559,625.5L558.75,625.5L558.75,625.25L558.5,625.25L558.5,625L558.25,625L558.25,624.75L558,624.75L558,624.5L557.75,624.5L557.75,624.25L557.5,624.25L557.5,624L557.25,624L557.25,623.75L557,623.75L557,623.25L556.75,623.25L556.75,623L556.5,623L556.5,622.75L556.25,622.75L556.25,622.5L556,622.5L556,622.25L555.75,622.25L555.75,622L555.5,622L555.5,621.75L555.25,621.75L555.25,621.25L555,621.25L555,621L554.75,621L554.75,620.75L554.5,620.75L554.5,620.25L554.25,620.25L554.25,620L554,620L554,619.75L553.75,619.75L553.75,619.25L553.5,619.25L553.5,619L553.25,619L553.25,618.75L553,618.75L553,618.25L552.75,618.25L552.75,617.75L552.5,617.75L552.5,617.5L552.25,617.5L552.25,617.25L552,617.25L552,616.75L551.75,616.75L551.75,616.25L551.5,616.25L551.5,615.75L551.25,615.75L551.25,615.5L551,615.5L551,615L550.75,615L550.75,614.5L550.5,614.5L550.5,614L550.25,614L550.25,613.5L550,613.5L550,613L549.75,613L549.75,612.5L549.5,612.5L549.5,612L549.25,612L549.25,611.5L549,611.5L549,611L548.75,611L548.75,610.5L548.5,610.5L548.5,610L548.25,610L548.25,609.5L548,609.5L548,608.75L547.75,608.75L547.75,608L547.5,608L547.5,607.25L547.25,607.25L547.25,606.75L547,606.75L547,606L546.75,606L546.75,605L546.5,605L546.5,604.25L546.25,604.25L546.25,603.5L546,603.5L546,602.75L545.75,602.75L545.75,601.5L545.5,601.5L545.5,600.5L545.25,600.5L545.25,599.25L545,599.25L545,597.75L544.75,597.75L544.75,595.75L544.5,595.75L544.5,592.5L544.25,592.5L544.25,588.25L544.5,588.25L544.5,583.75L544.75,583.75L544.75,581.5L545,581.5L545,580L545.25,580L545.25,578.75L545.5,578.75L545.5,577.5L545.75,577.5L545.75,576.5L546,576.5L546,575.5L546.25,575.5L546.25,574.75L546.5,574.75L546.5,574L546.75,574L546.75,573L547,573L547,572L547.25,572L547.25,571.5L547.5,571.5L547.5,571L547.75,571L547.75,570L548,570L548,569.5L548.25,569.5L548.25,569L548.5,569L548.5,568.5L548.75,568.5L548.75,567.75L549,567.75L549,567.25L549.25,567.25L549.25,566.75L549.5,566.75L549.5,566.25L549.75,566.25L549.75,565.75L550,565.75L550,565L550.25,565L550.25,564.75L550.5,564.75L550.5,564.25L550.75,564.25L550.75,563.75L551,563.75L551,563.25L551.25,563.25L551.25,563L551.5,563L551.5,562.5L551.75,562.5L551.75,562.25L552,562.25L552,561.75L552.25,561.75L552.25,561.5L552.5,561.5L552.5,561L552.75,561L552.75,560.75L553,560.75L553,560.25L553.25,560.25L553.25,560L553.5,560L553.5,559.75L553.75,559.75L553.75,559.25L554,559.25L554,559L554.25,559L554.25,558.75L554.5,558.75L554.5,558.5L554.75,558.5L554.75,558L555,558L555,557.75L555.25,557.75L555.25,557.5L555.5,557.5L555.5,557.25L555.75,557.25L555.75,557L556,557L556,556.5L556.25,556.5L556.25,556.25L556.5,556.25L556.5,556L556.75,556L556.75,555.75L557,555.75L557,555.5L557.25,555.5L557.25,555.25L557.5,555.25L557.5,555L557.75,555L557.75,554.75L558,554.75L558,554.5L558.25,554.5L558.25,554.25L558.5,554.25L558.5,554L559,554L559,553.75L559.25,553.75L559.25,553.5L559.5,553.5L559.5,553.25L559.75,553.25L559.75,553L560,553L560,552.75L560.25,552.75L560.25,552.5L560.5,552.5L560.5,552.25L560.75,552.25L560.75,552L561,552L561,551.75L561.5,551.75L561.5,551.5L561.75,551.5L561.75,551.25L562,551.25L562,551L562.25,551L562.25,550.75L562.5,550.75L562.5,550.5L563,550.5L563,550.25L563.25,550.25L563.25,550L563.5,550L563.5,549.75L564,549.75L564,549.5L564.25,549.5L564.25,549.25L564.5,549.25L564.5,549L565,549L565,548.75L565.25,548.75L565.25,548.5L565.5,548.5L565.5,548.25L566,548.25L566,548L566.5,548L566.5,547.75L566.75,547.75L566.75,547.5L567.25,547.5L567.25,547.25L567.75,547.25L567.75,547L568,547L568,546.75L568.5,546.75L568.5,546.5L569,546.5L569,546.25L569.5,546.25L569.5,546L570,546L570,545.75L570.5,545.75L570.5,545.5L571,545.5L571,545.25L571.25,545.25L571.25,545L572,545L572,544.75L572.5,544.75L572.5,544.5L573,544.5L573,544.25L573.75,544.25L573.75,544L574.25,544L574.25,543.75L575,543.75L575,543.5L575.75,543.5L575.75,543.25L576.5,543.25L576.5,543L577.25,543L577.25,542.75L578.5,542.75L578.5,542.5L579.25,542.5L579.25,542.25L580.25,542.25L580.25,542L581.25,542L581.25,541.75L582.25,541.75L582.25,541.5L583.5,541.5L583.5,541.25L584.75,541.25L584.75,541L586.25,541L586.25,540.75L588,540.75L588,540.5L591.75,540.5ZM110.75,541.75L112.5,541.75L112.5,542L113,542L113,541.75L114.25,541.75L114.25,542L184.75,542L184.75,541.75L185.5,541.75L185.5,542L186.25,542L186.25,542.25L186.5,542.25L186.5,543L186.75,543L186.75,543.25L186.5,543.25L186.5,563.25L186.25,563.25L186.25,563.5L185.75,563.5L185.75,563.75L161.25,563.75L161.25,564L161,564L161,564.75L160.75,564.75L160.75,565L161,565L161,625L160.75,625L160.75,631.25L161,631.25L161,632.75L160.75,632.75L160.75,633.5L161,633.5L161,634.75L160.75,634.75L160.75,635.25L136.25,635.25L136.25,635L136,635L136,565L136.25,565L136.25,564.5L136,564.5L136,564L135.75,564L135.75,563.75L113.25,563.75L113.25,563.5L112.25,563.5L112.25,563.75L111,563.75L111,563.5L110.5,563.5L110.5,563.25L110.25,563.25L110.25,562.5L110,562.5L110,562.25L110.25,562.25L110.25,543.5L110,543.5L110,542.25L110.25,542.25L110.25,542L110.75,542ZM198.25,541.75L199.25,541.75L199.25,542L220.75,542L220.75,541.75L221.5,541.75L221.5,542L221.75,542L221.75,542.25L222,542.25L222,575.5L222.25,575.5L222.25,576L222.5,576L222.5,576.25L222.75,576.25L222.75,576.5L258.75,576.5L258.75,576.25L259,576.25L259,576L259.25,576L259.25,542.5L259.5,542.5L259.5,542L282,542L282,541.75L282.75,541.75L282.75,542L283.5,542L283.5,542.5L283.75,542.5L283.75,634.75L283.5,634.75L283.5,635L283.25,635L283.25,635.25L259.75,635.25L259.75,635L259.5,635L259.5,634.75L259.25,634.75L259.25,598.75L259,598.75L259,598.5L258.75,598.5L258.75,598.25L222.5,598.25L222.5,598.5L222.25,598.5L222.25,599.25L222,599.25L222,600.25L222.25,600.25L222.25,606.25L222,606.25L222,634L222.25,634L222.25,634.25L222,634.25L222,635L221.75,635L221.75,635.25L198,635.25L198,635L197.5,635L197.5,634.25L197.25,634.25L197.25,634L197.5,634L197.5,542.25L197.75,542.25L197.75,542L198.25,542ZM301.25,541.75L302.75,541.75L302.75,542L367.5,542L367.5,541.75L368.25,541.75L368.25,542L369,542L369,542.25L369.25,542.25L369.25,542.5L369.5,542.5L369.5,544.5L369.25,544.5L369.25,544.75L369.5,544.75L369.5,562.75L369.25,562.75L369.25,563.25L369,563.25L369,563.5L368.25,563.5L368.25,563.75L367.75,563.75L367.75,563.5L365,563.5L365,563.75L326.75,563.75L326.75,563.5L326,563.5L326,563.75L325.25,563.75L325.25,564L325,564L325,576.5L325.25,576.5L325.25,577L325.75,577L325.75,577.25L367.75,577.25L367.75,577.5L368,577.5L368,577.75L368.25,577.75L368.25,578L368.5,578L368.5,579.25L368.25,579.25L368.25,580.25L368.5,580.25L368.5,596L368.25,596L368.25,596.5L368.5,596.5L368.5,597.5L368.25,597.5L368.25,598L368,598L368,598.25L328,598.25L328,598.5L327.5,598.5L327.5,598.25L325.75,598.25L325.75,598.5L325.5,598.5L325.5,598.75L325.25,598.75L325.25,599L325,599L325,613.5L325.25,613.5L325.25,613.75L325.5,613.75L325.5,614L326.25,614L326.25,614.25L327,614.25L327,614L330.25,614L330.25,614.25L337.25,614.25L337.25,614L368.5,614L368.5,614.25L369,614.25L369,614.5L369.25,614.5L369.25,635L368.75,635L368.75,635.25L301.25,635.25L301.25,635L300.75,635L300.75,634.25L300.5,634.25L300.5,634L300.75,634L300.75,561.75L300.5,561.75L300.5,550.75L300.75,550.75L300.75,543.25L300.5,543.25L300.5,542.5L300.75,542.5L300.75,542L301.25,542ZM412.5,541.75L414.75,541.75L414.75,542L437.75,542L437.75,541.75L438.75,541.75L438.75,542L439.25,542L439.25,542.25L439.5,542.25L439.5,543L439.75,543L439.75,544L440,544L440,545.5L440.25,545.5L440.25,546.75L440.5,546.75L440.5,547.25L440.75,547.25L440.75,548.25L441,548.25L441,549.75L441.25,549.75L441.25,551.25L441.5,551.25L441.5,552L441.75,552L441.75,553L442,553L442,554.5L442.25,554.5L442.25,556L442.5,556L442.5,556.75L442.75,556.75L442.75,557.75L443,557.75L443,559.25L443.25,559.25L443.25,560.75L443.5,560.75L443.5,561.5L443.75,561.5L443.75,562.25L444,562.25L444,563.75L444.25,563.75L444.25,565L444.5,565L444.5,565.75L444.75,565.75L444.75,566.5L445,566.5L445,568L445.25,568L445.25,569.25L445.5,569.25L445.5,570L445.75,570L445.75,570.75L446,570.75L446,572.25L446.25,572.25L446.25,573.25L446.5,573.25L446.5,574L446.75,574L446.75,575L447,575L447,576.5L447.25,576.5L447.25,577.75L447.5,577.75L447.5,578.5L447.75,578.5L447.75,579.5L448,579.5L448,581L448.25,581L448.25,582.25L448.5,582.25L448.5,583L448.75,583L448.75,584L449,584L449,585.25L449.25,585.25L449.25,586.75L449.5,586.75L449.5,587.5L449.75,587.5L449.75,588.5L450,588.5L450,590L450.25,590L450.25,591.25L450.5,591.25L450.5,592L450.75,592L450.75,593L451,593L451,594.25L451.25,594.25L451.25,595.25L451.5,595.25L451.5,596L451.75,596L451.75,597L452,597L452,598L452.25,598L452.25,599L452.5,599L452.5,600L452.75,600L452.75,601.25L453,601.25L453,602L453.25,602L453.25,602.5L453.75,602.5L453.75,602.25L454,602.25L454,601.25L454.25,601.25L454.25,599.5L454.5,599.5L454.5,598.5L454.75,598.5L454.75,597.5L455,597.5L455,596.75L455.25,596.75L455.25,595.75L455.5,595.75L455.5,595L455.75,595L455.75,594.25L456,594.25L456,593L456.25,593L456.25,592L456.5,592L456.5,591.25L456.75,591.25L456.75,590.75L457,590.75L457,589.25L457.25,589.25L457.25,588L457.5,588L457.5,587.25L457.75,587.25L457.75,586.25L458,586.25L458,584.75L458.25,584.75L458.25,583.5L458.5,583.5L458.5,582.75L458.75,582.75L458.75,582L459,582L459,580.75L459.25,580.75L459.25,579.75L459.5,579.75L459.5,579L459.75,579L459.75,578L460,578L460,576.75L460.25,576.75L460.25,575.75L460.5,575.75L460.5,575L460.75,575L460.75,574.25L461,574.25L461,573L461.25,573L461.25,571.75L461.5,571.75L461.5,571L461.75,571L461.75,570.25L462,570.25L462,569L462.25,569L462.25,568L462.5,568L462.5,567L462.75,567L462.75,566.25L463,566.25L463,564.75L463.25,564.75L463.25,563.5L463.5,563.5L463.5,562.75L463.75,562.75L463.75,562L464,562L464,560.5L464.25,560.5L464.25,559.5L464.5,559.5L464.5,558.75L464.75,558.75L464.75,558L465,558L465,556.75L465.25,556.75L465.25,555.75L465.5,555.75L465.5,555L465.75,555L465.75,554.25L466,554.25L466,552.75L466.25,552.75L466.25,551.5L466.5,551.5L466.5,550.75L466.75,550.75L466.75,550L467,550L467,548.75L467.25,548.75L467.25,547.5L467.5,547.5L467.5,546.75L467.75,546.75L467.75,546L468,546L468,545L468.25,545L468.25,543.75L468.5,543.75L468.5,543L468.75,543L468.75,542.25L469,542.25L469,542L469.5,542L469.5,541.75L471,541.75L471,542L481.75,542L481.75,541.75L487.75,541.75L487.75,542L488,542L488,542.25L488.25,542.25L488.25,542.75L488.5,542.75L488.5,543.75L488.75,543.75L488.75,544.5L489,544.5L489,545.5L489.25,545.5L489.25,547L489.5,547L489.5,548L489.75,548L489.75,548.75L490,548.75L490,549.75L490.25,549.75L490.25,551L490.5,551L490.5,552L490.75,552L490.75,553L491,553L491,554L491.25,554L491.25,555L491.5,555L491.5,556L491.75,556L491.75,556.75L492,556.75L492,557.75L492.25,557.75L492.25,559L492.5,559L492.5,560L492.75,560L492.75,560.75L493,560.75L493,561.75L493.25,561.75L493.25,563L493.5,563L493.5,564L493.75,564L493.75,564.75L494,564.75L494,565.75L494.25,565.75L494.25,567L494.5,567L494.5,568L494.75,568L494.75,569L495,569L495,569.75L495.25,569.75L495.25,570.75L495.5,570.75L495.5,571.75L495.75,571.75L495.75,572.75L496,572.75L496,573.75L496.25,573.75L496.25,574.75L496.5,574.75L496.5,575.75L496.75,575.75L496.75,576.75L497,576.75L497,577.75L497.25,577.75L497.25,578.75L497.5,578.75L497.5,579.75L497.75,579.75L497.75,580.75L498,580.75L498,581.75L498.25,581.75L498.25,583L498.5,583L498.5,583.75L498.75,583.75L498.75,584.75L499,584.75L499,585.75L499.25,585.75L499.25,587L499.5,587L499.5,588L499.75,588L499.75,589L500,589L500,590L500.25,590L500.25,591.25L500.5,591.25L500.5,592.25L500.75,592.25L500.75,593.25L501,593.25L501,594L501.25,594L501.25,595L501.5,595L501.5,596L501.75,596L501.75,596.75L502,596.75L502,597.5L502.25,597.5L502.25,598.5L502.5,598.5L502.5,599.75L502.75,599.75L502.75,601L503,601L503,601.75L503.25,601.75L503.25,602.25L504,602.25L504,602L504.25,602L504.25,601.25L504.5,601.25L504.5,599.5L504.75,599.5L504.75,598.5L505,598.5L505,597.25L505.25,597.25L505.25,596.25L505.5,596.25L505.5,595.25L505.75,595.25L505.75,594.5L506,594.5L506,593.25L506.25,593.25L506.25,592L506.5,592L506.5,590.75L506.75,590.75L506.75,589.75L507,589.75L507,588.75L507.25,588.75L507.25,587.25L507.5,587.25L507.5,586L507.75,586L507.75,585.25L508,585.25L508,584L508.25,584L508.25,582.75L508.5,582.75L508.5,581.5L508.75,581.5L508.75,580.75L509,580.75L509,579.5L509.25,579.5L509.25,578.25L509.5,578.25L509.5,577.25L509.75,577.25L509.75,576.25L510,576.25L510,575.25L510.25,575.25L510.25,574L510.5,574L510.5,572.75L510.75,572.75L510.75,571.75L511,571.75L511,570.75L511.25,570.75L511.25,569.25L511.5,569.25L511.5,568.25L511.75,568.25L511.75,567.25L512,567.25L512,566L512.25,566L512.25,564.5L512.5,564.5L512.5,563.5L512.75,563.5L512.75,562.5L513,562.5L513,561.25L513.25,561.25L513.25,560L513.5,560L513.5,559L513.75,559L513.75,558.25L514,558.25L514,557.25L514.25,557.25L514.25,555.75L514.5,555.75L514.5,554.75L514.75,554.75L514.75,553.5L515,553.5L515,552.5L515.25,552.5L515.25,551L515.5,551L515.5,549.75L515.75,549.75L515.75,548.75L516,548.75L516,547.75L516.25,547.75L516.25,546.75L516.5,546.75L516.5,545.75L516.75,545.75L516.75,545L517,545L517,544L517.25,544L517.25,542.75L517.5,542.75L517.5,542.25L517.75,542.25L517.75,542L518.25,542L518.25,541.75L519.25,541.75L519.25,542L544.5,542L544.5,542.25L544.75,542.25L544.75,543.25L544.5,543.25L544.5,543.75L544.25,543.75L544.25,544.25L544,544.25L544,545L543.75,545L543.75,546L543.5,546L543.5,547L543.25,547L543.25,548L543,548L543,548.75L542.75,548.75L542.75,550L542.5,550L542.5,551L542.25,551L542.25,551.75L542,551.75L542,552.75L541.75,552.75L541.75,553.75L541.5,553.75L541.5,554.5L541.25,554.5L541.25,555.25L541,555.25L541,556L540.75,556L540.75,557.25L540.5,557.25L540.5,558L540.25,558L540.25,558.5L540,558.5L540,559.5L539.75,559.5L539.75,560.5L539.5,560.5L539.5,561.25L539.25,561.25L539.25,562L539,562L539,562.75L538.75,562.75L538.75,563.75L538.5,563.75L538.5,564.75L538.25,564.75L538.25,565.5L538,565.5L538,566.5L537.75,566.5L537.75,567.5L537.5,567.5L537.5,568.25L537.25,568.25L537.25,569.25L537,569.25L537,570L536.75,570L536.75,571L536.5,571L536.5,571.75L536.25,571.75L536.25,572.75L536,572.75L536,573.5L535.75,573.5L535.75,574.5L535.5,574.5L535.5,575.25L535.25,575.25L535.25,576L535,576L535,577L534.75,577L534.75,578L534.5,578L534.5,578.75L534.25,578.75L534.25,579.5L534,579.5L534,580.25L533.75,580.25L533.75,581.5L533.5,581.5L533.5,582.25L533.25,582.25L533.25,583L533,583L533,583.75L532.75,583.75L532.75,584.75L532.5,584.75L532.5,585.75L532.25,585.75L532.25,586.5L532,586.5L532,587.25L531.75,587.25L531.75,588.25L531.5,588.25L531.5,589.25L531.25,589.25L531.25,590L531,590L531,590.75L530.75,590.75L530.75,591.75L530.5,591.75L530.5,592.75L530.25,592.75L530.25,593.5L530,593.5L530,594.5L529.75,594.5L529.75,595.25L529.5,595.25L529.5,596.25L529.25,596.25L529.25,597L529,597L529,598L528.75,598L528.75,599L528.5,599L528.5,600L528.25,600L528.25,601L528,601L528,601.75L527.75,601.75L527.75,602.75L527.5,602.75L527.5,603.75L527.25,603.75L527.25,604.5L527,604.5L527,605.25L526.75,605.25L526.75,606.25L526.5,606.25L526.5,607L526.25,607L526.25,608L526,608L526,608.75L525.75,608.75L525.75,609.75L525.5,609.75L525.5,610.5L525.25,610.5L525.25,611.25L525,611.25L525,612L524.75,612L524.75,613.25L524.5,613.25L524.5,614.25L524.25,614.25L524.25,615L524,615L524,615.75L523.75,615.75L523.75,617L523.5,617L523.5,618L523.25,618L523.25,618.75L523,618.75L523,619.75L522.75,619.75L522.75,620.5L522.5,620.5L522.5,621.5L522.25,621.5L522.25,622.5L522,622.5L522,623.25L521.75,623.25L521.75,624.25L521.5,624.25L521.5,625L521.25,625L521.25,625.75L521,625.75L521,626.75L520.75,626.75L520.75,627.5L520.5,627.5L520.5,628.25L520.25,628.25L520.25,629.25L520,629.25L520,630.25L519.75,630.25L519.75,631L519.5,631L519.5,632L519.25,632L519.25,632.75L519,632.75L519,633.75L518.75,633.75L518.75,634.5L518.5,634.5L518.5,635L518.25,635L518.25,635.25L492.75,635.25L492.75,635L492.5,635L492.5,634.75L492.25,634.75L492.25,634.25L492,634.25L492,633L491.75,633L491.75,632L491.5,632L491.5,631.25L491.25,631.25L491.25,630L491,630L491,628.75L490.75,628.75L490.75,628L490.5,628L490.5,627.25L490.25,627.25L490.25,625.75L490,625.75L490,624.5L489.75,624.5L489.75,623.75L489.5,623.75L489.5,622.5L489.25,622.5L489.25,621.25L489,621.25L489,620L488.75,620L488.75,619.25L488.5,619.25L488.5,618.25L488.25,618.25L488.25,617.25L488,617.25L488,616L487.75,616L487.75,615.25L487.5,615.25L487.5,614.25L487.25,614.25L487.25,613L487,613L487,612L486.75,612L486.75,611.25L486.5,611.25L486.5,610.25L486.25,610.25L486.25,609.25L486,609.25L486,608L485.75,608L485.75,607L485.5,607L485.5,606L485.25,606L485.25,604.75L485,604.75L485,603.5L484.75,603.5L484.75,602.75L484.5,602.75L484.5,601.75L484.25,601.75L484.25,600.5L484,600.5L484,599.5L483.75,599.5L483.75,598.75L483.5,598.75L483.5,597.75L483.25,597.75L483.25,596.5L483,596.5L483,595.5L482.75,595.5L482.75,594.75L482.5,594.75L482.5,593.5L482.25,593.5L482.25,592.25L482,592.25L482,591.25L481.75,591.25L481.75,590.25L481.5,590.25L481.5,589.5L481.25,589.5L481.25,588L481,588L481,587L480.75,587L480.75,586.25L480.5,586.25L480.5,585.25L480.25,585.25L480.25,584L480,584L480,583L479.75,583L479.75,582L479.5,582L479.5,580.75L479.25,580.75L479.25,579.25L479,579.25L479,579L478.75,579L478.75,578.75L478.25,578.75L478.25,579L478,579L478,579.25L477.75,579.25L477.75,580L477.5,580L477.5,581.5L477.25,581.5L477.25,582.75L477,582.75L477,583.75L476.75,583.75L476.75,584.5L476.5,584.5L476.5,585.5L476.25,585.5L476.25,586.75L476,586.75L476,588L475.75,588L475.75,589L475.5,589L475.5,590L475.25,590L475.25,591.25L475,591.25L475,592.25L474.75,592.25L474.75,593.25L474.5,593.25L474.5,594L474.25,594L474.25,595.25L474,595.25L474,596.5L473.75,596.5L473.75,597.5L473.5,597.5L473.5,598.25L473.25,598.25L473.25,599.25L473,599.25L473,600.5L472.75,600.5L472.75,601.5L472.5,601.5L472.5,602.25L472.25,602.25L472.25,603.25L472,603.25L472,604.25L471.75,604.25L471.75,605.25L471.5,605.25L471.5,606L471.25,606L471.25,607L471,607L471,608.25L470.75,608.25L470.75,609L470.5,609L470.5,610L470.25,610L470.25,611L470,611L470,612.25L469.75,612.25L469.75,613.25L469.5,613.25L469.5,614.25L469.25,614.25L469.25,615.5L469,615.5L469,616.75L468.75,616.75L468.75,617.5L468.5,617.5L468.5,618.25L468.25,618.25L468.25,619.5L468,619.5L468,620.75L467.75,620.75L467.75,621.5L467.5,621.5L467.5,622.25L467.25,622.25L467.25,623.25L467,623.25L467,624.5L466.75,624.5L466.75,625.5L466.5,625.5L466.5,626.25L466.25,626.25L466.25,627.25L466,627.25L466,628.75L465.75,628.75L465.75,629.75L465.5,629.75L465.5,630.5L465.25,630.5L465.25,631.75L465,631.75L465,633.25L464.75,633.25L464.75,634.25L464.5,634.25L464.5,634.75L464.25,634.75L464.25,635L464,635L464,635.25L438.5,635.25L438.5,635L438.25,635L438.25,634.75L438,634.75L438,633.75L437.75,633.75L437.75,633L437.5,633L437.5,632.25L437.25,632.25L437.25,631.25L437,631.25L437,630L436.75,630L436.75,629.25L436.5,629.25L436.5,628.5L436.25,628.5L436.25,627.75L436,627.75L436,626.75L435.75,626.75L435.75,626L435.5,626L435.5,625.5L435.25,625.5L435.25,624.5L435,624.5L435,623.25L434.75,623.25L434.75,622.25L434.5,622.25L434.5,621.75L434.25,621.75L434.25,620.75L434,620.75L434,619.25L433.75,619.25L433.75,618.5L433.5,618.5L433.5,618L433.25,618L433.25,617L433,617L433,615.5L432.75,615.5L432.75,614.75L432.5,614.75L432.5,614L432.25,614L432.25,613L432,613L432,612L431.75,612L431.75,611.25L431.5,611.25L431.5,610.5L431.25,610.5L431.25,609.5L431,609.5L431,608.25L430.75,608.25L430.75,607.5L430.5,607.5L430.5,606.75L430.25,606.75L430.25,606L430,606L430,604.5L429.75,604.5L429.75,604L429.5,604L429.5,603.25L429.25,603.25L429.25,602.5L429,602.5L429,601.5L428.75,601.5L428.75,600.5L428.5,600.5L428.5,600L428.25,600L428.25,599L428,599L428,598L427.75,598L427.75,597.25L427.5,597.25L427.5,596.5L427.25,596.5L427.25,595.75L427,595.75L427,594.5L426.75,594.5L426.75,593.75L426.5,593.75L426.5,593L426.25,593L426.25,592.25L426,592.25L426,590.75L425.75,590.75L425.75,589.75L425.5,589.75L425.5,589.25L425.25,589.25L425.25,588.25L425,588.25L425,587L424.75,587L424.75,586.25L424.5,586.25L424.5,585.75L424.25,585.75L424.25,584.75L424,584.75L424,583.5L423.75,583.5L423.75,582.75L423.5,582.75L423.5,582L423.25,582L423.25,581L423,581L423,579.75L422.75,579.75L422.75,579L422.5,579L422.5,578.5L422.25,578.5L422.25,577.75L422,577.75L422,576.25L421.75,576.25L421.75,575.75L421.5,575.75L421.5,575L421.25,575L421.25,574L421,574L421,572.75L420.75,572.75L420.75,572L420.5,572L420.5,571.5L420.25,571.5L420.25,570.5L420,570.5L420,569.5L419.75,569.5L419.75,568.75L419.5,568.75L419.5,568.25L419.25,568.25L419.25,567.25L419,567.25L419,566L418.75,566L418.75,565.25L418.5,565.25L418.5,564.75L418.25,564.75L418.25,563.75L418,563.75L418,562.25L417.75,562.25L417.75,561.5L417.5,561.5L417.5,561L417.25,561L417.25,560L417,560L417,558.75L416.75,558.75L416.75,558L416.5,558L416.5,557.25L416.25,557.25L416.25,556.25L416,556.25L416,555L415.75,555L415.75,554.25L415.5,554.25L415.5,553.75L415.25,553.75L415.25,552.75L415,552.75L415,551.5L414.75,551.5L414.75,550.75L414.5,550.75L414.5,550L414.25,550L414.25,549.25L414,549.25L414,548L413.75,548L413.75,547L413.5,547L413.5,546.5L413.25,546.5L413.25,545.75L413,545.75L413,544.25L412.75,544.25L412.75,543.5L412.5,543.5L412.5,543.25L412.25,543.25L412.25,542L412.5,542ZM654.25,541.75L655.25,541.75L655.25,542L668,542L668,541.75L670,541.75L670,542L703,542L703,542.25L705,542.25L705,542.5L707.25,542.5L707.25,542.75L708.5,542.75L708.5,543L709.75,543L709.75,543.25L710.5,543.25L710.5,543.5L711.5,543.5L711.5,543.75L712.25,543.75L712.25,544L713,544L713,544.25L713.5,544.25L713.5,544.5L714,544.5L714,544.75L714.75,544.75L714.75,545L715.5,545L715.5,545.25L715.75,545.25L715.75,545.5L716.25,545.5L716.25,545.75L717,545.75L717,546L717.5,546L717.5,546.25L717.75,546.25L717.75,546.5L718.25,546.5L718.25,546.75L718.75,546.75L718.75,547L719,547L719,547.25L719.5,547.25L719.5,547.5L719.75,547.5L719.75,547.75L720.25,547.75L720.25,548L720.75,548L720.75,548.25L721,548.25L721,548.5L721.25,548.5L721.25,548.75L721.5,548.75L721.5,549L722,549L722,549.25L722.25,549.25L722.25,549.5L722.5,549.5L722.5,549.75L722.75,549.75L722.75,550L723.25,550L723.25,550.25L723.5,550.25L723.5,550.5L723.75,550.5L723.75,550.75L724,550.75L724,551L724.25,551L724.25,551.25L724.5,551.25L724.5,551.5L724.75,551.5L724.75,551.75L725,551.75L725,552L725.25,552L725.25,552.25L725.5,552.25L725.5,552.75L725.75,552.75L725.75,553L726,553L726,553.25L726.25,553.25L726.25,553.5L726.5,553.5L726.5,554L726.75,554L726.75,554.25L727,554.25L727,554.75L727.25,554.75L727.25,555L727.5,555L727.5,555.25L727.75,555.25L727.75,555.75L728,555.75L728,556L728.25,556L728.25,556.5L728.5,556.5L728.5,557L728.75,557L728.75,557.5L729,557.5L729,558L729.25,558L729.25,558.5L729.5,558.5L729.5,559L729.75,559L729.75,559.5L730,559.5L730,560L730.25,560L730.25,560.75L730.5,560.75L730.5,561.5L730.75,561.5L730.75,562.25L731,562.25L731,563L731.25,563L731.25,564L731.5,564L731.5,565L731.75,565L731.75,566.5L732,566.5L732,568L732.25,568L732.25,570.75L732.5,570.75L732.5,575.75L732.25,575.75L732.25,578.25L732,578.25L732,580L731.75,580L731.75,581.25L731.5,581.25L731.5,582.25L731.25,582.25L731.25,583.25L731,583.25L731,584L730.75,584L730.75,584.75L730.5,584.75L730.5,585.5L730.25,585.5L730.25,586.25L730,586.25L730,586.75L729.75,586.75L729.75,587.25L729.5,587.25L729.5,587.75L729.25,587.75L729.25,588.25L729,588.25L729,588.75L728.75,588.75L728.75,589L728.5,589L728.5,589.5L728.25,589.5L728.25,590L728,590L728,590.25L727.75,590.25L727.75,590.75L727.5,590.75L727.5,591L727.25,591L727.25,591.5L727,591.5L727,591.75L726.75,591.75L726.75,592.25L726.5,592.25L726.5,592.5L726.25,592.5L726.25,592.75L726,592.75L726,593.25L725.75,593.25L725.75,593.5L725.5,593.5L725.5,593.75L725.25,593.75L725.25,594L725,594L725,594.25L724.75,594.25L724.75,594.5L724.5,594.5L724.5,594.75L724.25,594.75L724.25,595L724,595L724,595.25L723.75,595.25L723.75,595.5L723.5,595.5L723.5,595.75L723.25,595.75L723.25,596L723,596L723,596.25L722.75,596.25L722.75,596.5L722.5,596.5L722.5,596.75L722,596.75L722,597L721.75,597L721.75,597.25L721.5,597.25L721.5,597.5L721,597.5L721,597.75L720.75,597.75L720.75,598L720.25,598L720.25,598.25L720,598.25L720,598.5L719.5,598.5L719.5,598.75L719,598.75L719,599L718.5,599L718.5,599.25L718.25,599.25L718.25,599.5L717.75,599.5L717.75,599.75L717.25,599.75L717.25,600L716.75,600L716.75,600.25L716.25,600.25L716.25,600.5L716,600.5L716,600.75L715.25,600.75L715.25,601L714.5,601L714.5,601.25L714.25,601.25L714.25,602.5L714.5,602.5L714.5,603L714.75,603L714.75,603.25L715,603.25L715,603.75L715.25,603.75L715.25,604.25L715.5,604.25L715.5,604.75L715.75,604.75L715.75,605.25L716,605.25L716,605.5L716.25,605.5L716.25,606L716.5,606L716.5,606.5L716.75,606.5L716.75,607L717,607L717,607.25L717.25,607.25L717.25,607.75L717.5,607.75L717.5,608.25L717.75,608.25L717.75,608.75L718,608.75L718,609L718.25,609L718.25,609.5L718.5,609.5L718.5,610L718.75,610L718.75,610.5L719,610.5L719,611L719.25,611L719.25,611.5L719.5,611.5L719.5,611.75L719.75,611.75L719.75,612.25L720,612.25L720,612.75L720.25,612.75L720.25,613.25L720.5,613.25L720.5,613.75L720.75,613.75L720.75,614L721,614L721,614.5L721.25,614.5L721.25,615L721.5,615L721.5,615.5L721.75,615.5L721.75,616L722,616L722,616.5L722.25,616.5L722.25,617L722.5,617L722.5,617.25L722.75,617.25L722.75,617.75L723,617.75L723,618.25L723.25,618.25L723.25,618.5L723.5,618.5L723.5,619L723.75,619L723.75,619.5L724,619.5L724,620L724.25,620L724.25,620.5L724.5,620.5L724.5,620.75L724.75,620.75L724.75,621.25L725,621.25L725,621.75L725.25,621.75L725.25,622L725.5,622L725.5,622.5L725.75,622.5L725.75,623L726,623L726,623.25L726.25,623.25L726.25,623.75L726.5,623.75L726.5,624.25L726.75,624.25L726.75,624.75L727,624.75L727,625L727.25,625L727.25,625.5L727.5,625.5L727.5,626L727.75,626L727.75,626.25L728,626.25L728,626.75L728.25,626.75L728.25,627.25L728.5,627.25L728.5,627.75L728.75,627.75L728.75,628L729,628L729,628.5L729.25,628.5L729.25,628.75L729.5,628.75L729.5,629.25L729.75,629.25L729.75,629.75L730,629.75L730,630.25L730.25,630.25L730.25,630.5L730.5,630.5L730.5,631.25L730.75,631.25L730.75,631.75L731,631.75L731,632L731.25,632L731.25,632.75L731.5,632.75L731.5,633.25L731.75,633.25L731.75,633.5L732,633.5L732,634L732.25,634L732.25,634.25L732.5,634.25L732.5,635L732.25,635L732.25,635.25L705.5,635.25L705.5,635L705,635L705,634.75L704.75,634.75L704.75,634.25L704.5,634.25L704.5,633.75L704.25,633.75L704.25,633.25L704,633.25L704,632.75L703.75,632.75L703.75,632.25L703.5,632.25L703.5,631.75L703.25,631.75L703.25,631.25L703,631.25L703,630.75L702.75,630.75L702.75,630.25L702.5,630.25L702.5,629.75L702.25,629.75L702.25,629.25L702,629.25L702,628.75L701.75,628.75L701.75,628.5L701.5,628.5L701.5,628L701.25,628L701.25,627.5L701,627.5L701,627L700.75,627L700.75,626.5L700.5,626.5L700.5,626L700.25,626L700.25,625.5L700,625.5L700,625L699.75,625L699.75,624.5L699.5,624.5L699.5,624L699.25,624L699.25,623.5L699,623.5L699,623L698.75,623L698.75,622.5L698.5,622.5L698.5,622L698.25,622L698.25,621.5L698,621.5L698,621L697.75,621L697.75,620.5L697.5,620.5L697.5,620L697.25,620L697.25,619.5L697,619.5L697,619L696.75,619L696.75,618.5L696.5,618.5L696.5,618L696.25,618L696.25,617.5L696,617.5L696,617L695.75,617L695.75,616.5L695.5,616.5L695.5,616.25L695.25,616.25L695.25,615.5L695,615.5L695,615L694.75,615L694.75,614.75L694.5,614.75L694.5,614.25L694.25,614.25L694.25,613.5L694,613.5L694,613L693.75,613L693.75,612.75L693.5,612.75L693.5,612.25L693.25,612.25L693.25,611.5L693,611.5L693,611L692.75,611L692.75,610.75L692.5,610.75L692.5,610.25L692.25,610.25L692.25,609.5L692,609.5L692,609L691.75,609L691.75,608.5L691.5,608.5L691.5,608L691.25,608L691.25,607.25L691,607.25L691,606.75L690.75,606.75L690.75,606.25L690.5,606.25L690.5,605.75L690.25,605.75L690.25,605.25L690,605.25L690,605L689.75,605L689.75,604.75L689,604.75L689,604.5L683.25,604.5L683.25,604.75L679.25,604.75L679.25,604.5L678.75,604.5L678.75,604.75L678.25,604.75L678.25,605L678,605L678,605.5L677.75,605.5L677.75,606.25L678,606.25L678,607.25L677.75,607.25L677.75,618.75L678,618.75L678,634.75L677.75,634.75L677.75,635L677.5,635L677.5,635.25L654,635.25L654,635L653.5,635L653.5,634.5L653.25,634.5L653.25,633.75L653.5,633.75L653.5,593.25L653.25,593.25L653.25,585L653.5,585L653.5,560L653.25,560L653.25,552L653.5,552L653.5,542.25L653.75,542.25L653.75,542L654.25,542ZM745.25,541.75L746.25,541.75L746.25,542L789.75,542L789.75,542.25L792.5,542.25L792.5,542.5L794.25,542.5L794.25,542.75L795.75,542.75L795.75,543L797,543L797,543.25L798.25,543.25L798.25,543.5L799.25,543.5L799.25,543.75L800.25,543.75L800.25,544L801,544L801,544.25L801.75,544.25L801.75,544.5L802.5,544.5L802.5,544.75L803.25,544.75L803.25,545L804,545L804,545.25L804.5,545.25L804.5,545.5L805.25,545.5L805.25,545.75L806,545.75L806,546L806.5,546L806.5,546.25L807,546.25L807,546.5L807.5,546.5L807.5,546.75L808.25,546.75L808.25,547L808.75,547L808.75,547.25L809.25,547.25L809.25,547.5L809.5,547.5L809.5,547.75L810.25,547.75L810.25,548L810.75,548L810.75,548.25L811,548.25L811,548.5L811.5,548.5L811.5,548.75L812,548.75L812,549L812.5,549L812.5,549.25L812.75,549.25L812.75,549.5L813.25,549.5L813.25,549.75L813.5,549.75L813.5,550L814,550L814,550.25L814.25,550.25L814.25,550.5L814.5,550.5L814.5,550.75L815,550.75L815,551L815.25,551L815.25,551.25L815.75,551.25L815.75,551.5L816,551.5L816,551.75L816.25,551.75L816.25,552L816.75,552L816.75,552.25L817,552.25L817,552.5L817.25,552.5L817.25,552.75L817.5,552.75L817.5,553L818,553L818,553.25L818.25,553.25L818.25,553.75L818.75,553.75L818.75,554L819,554L819,554.25L819.25,554.25L819.25,554.5L819.5,554.5L819.5,554.75L819.75,554.75L819.75,555L820,555L820,555.25L820.25,555.25L820.25,555.5L820.5,555.5L820.5,555.75L820.75,555.75L820.75,556L821,556L821,556.25L821.25,556.25L821.25,556.5L821.5,556.5L821.5,556.75L821.75,556.75L821.75,557L822,557L822,557.25L822.25,557.25L822.25,557.75L822.5,557.75L822.5,558L822.75,558L822.75,558.25L823,558.25L823,558.5L823.25,558.5L823.25,558.75L823.5,558.75L823.5,559L823.75,559L823.75,559.25L824,559.25L824,559.75L824.25,559.75L824.25,560L824.5,560L824.5,560.25L824.75,560.25L824.75,560.75L825,560.75L825,561L825.25,561L825.25,561.5L825.5,561.5L825.5,561.75L825.75,561.75L825.75,562L826,562L826,562.5L826.25,562.5L826.25,563L826.5,563L826.5,563.25L826.75,563.25L826.75,563.5L827,563.5L827,564.25L827.25,564.25L827.25,564.5L827.5,564.5L827.5,565L827.75,565L827.75,565.5L828,565.5L828,566L828.25,566L828.25,566.5L828.5,566.5L828.5,566.75L828.75,566.75L828.75,567.5L829,567.5L829,568.25L829.25,568.25L829.25,568.75L829.5,568.75L829.5,569.25L829.75,569.25L829.75,570L830,570L830,571L830.25,571L830.25,571.5L830.5,571.5L830.5,572L830.75,572L830.75,572.75L831,572.75L831,574L831.25,574L831.25,574.75L831.5,574.75L831.5,575.25L831.75,575.25L831.75,576.25L832,576.25L832,578L832.25,578L832.25,579.25L832.5,579.25L832.5,580.25L832.75,580.25L832.75,581.75L833,581.75L833,586.25L833.25,586.25L833.25,593.25L833,593.25L833,596L832.75,596L832.75,597.5L832.5,597.5L832.5,598.5L832.25,598.5L832.25,599.75L832,599.75L832,601.25L831.75,601.25L831.75,602.5L831.5,602.5L831.5,603L831.25,603L831.25,603.75L831,603.75L831,605L830.75,605L830.75,605.75L830.5,605.75L830.5,606.25L830.25,606.25L830.25,606.75L830,606.75L830,607.75L829.75,607.75L829.75,608.25L829.5,608.25L829.5,608.75L829.25,608.75L829.25,609.25L829,609.25L829,610L828.75,610L828.75,610.5L828.5,610.5L828.5,610.75L828.25,610.75L828.25,611.25L828,611.25L828,612L827.75,612L827.75,612.5L827.5,612.5L827.5,612.75L827.25,612.75L827.25,613.25L827,613.25L827,613.75L826.75,613.75L826.75,614.25L826.5,614.25L826.5,614.5L826.25,614.5L826.25,614.75L826,614.75L826,615.25L825.75,615.25L825.75,615.75L825.5,615.75L825.5,616L825.25,616L825.25,616.25L825,616.25L825,616.75L824.75,616.75L824.75,617L824.5,617L824.5,617.5L824.25,617.5L824.25,617.75L824,617.75L824,618L823.75,618L823.75,618.5L823.5,618.5L823.5,618.75L823.25,618.75L823.25,619L823,619L823,619.25L822.75,619.25L822.75,619.75L822.25,619.75L822.25,620L822,620L822,620.5L821.75,620.5L821.75,620.75L821.5,620.75L821.5,621L821.25,621L821.25,621.25L821,621.25L821,621.5L820.75,621.5L820.75,621.75L820.5,621.75L820.5,622L820.25,622L820.25,622.25L820,622.25L820,622.5L819.75,622.5L819.75,622.75L819.5,622.75L819.5,623L819.25,623L819.25,623.25L819,623.25L819,623.5L818.75,623.5L818.75,623.75L818.5,623.75L818.5,624L818.25,624L818.25,624.25L818,624.25L818,624.5L817.75,624.5L817.75,624.75L817.5,624.75L817.5,625L817,625L817,625.25L816.75,625.25L816.75,625.5L816.5,625.5L816.5,625.75L816,625.75L816,626L815.5,626L815.5,626.25L815.25,626.25L815.25,626.5L815,626.5L815,626.75L814.75,626.75L814.75,627L814.25,627L814.25,627.25L813.75,627.25L813.75,627.5L813.5,627.5L813.5,627.75L813,627.75L813,628L812.5,628L812.5,628.25L812.25,628.25L812.25,628.5L812,628.5L812,628.75L811.5,628.75L811.5,629L810.75,629L810.75,629.25L810.5,629.25L810.5,629.5L810.25,629.5L810.25,629.75L809.75,629.75L809.75,630L809,630L809,630.25L808.5,630.25L808.5,630.5L808.25,630.5L808.25,630.75L807.75,630.75L807.75,631L806.75,631L806.75,631.25L806.25,631.25L806.25,631.5L806,631.5L806,631.75L805.25,631.75L805.25,632L804.5,632L804.5,632.25L803.75,632.25L803.75,632.5L803.5,632.5L803.5,632.75L802.75,632.75L802.75,633L801.75,633L801.75,633.25L800.75,633.25L800.75,633.5L800.25,633.5L800.25,633.75L799.25,633.75L799.25,634L797.75,634L797.75,634.25L796.5,634.25L796.5,634.5L795.5,634.5L795.5,634.75L794.25,634.75L794.25,635L791,635L791,635.25L745,635.25L745,635L744.75,635L744.75,634.75L744.5,634.75L744.5,544.25L744.75,544.25L744.75,543.5L744.5,543.5L744.5,542.5L744.75,542.5L744.75,542L745.25,542ZM592.25,560L592,560L592,560.25L590,560.25L590,560.5L589,560.5L589,560.75L587.75,560.75L587.75,561L587,561L587,561.25L586.5,561.25L586.5,561.5L586,561.5L586,561.75L585.25,561.75L585.25,562L584.5,562L584.5,562.25L584,562.25L584,562.5L583.75,562.5L583.75,562.75L583.25,562.75L583.25,563L582.75,563L582.75,563.25L582.25,563.25L582.25,563.5L582,563.5L582,563.75L581.5,563.75L581.5,564L581,564L581,564.25L580.75,564.25L580.75,564.5L580.5,564.5L580.5,564.75L580.25,564.75L580.25,565L580,565L580,565.25L579.75,565.25L579.75,565.5L579.5,565.5L579.5,565.75L579.25,565.75L579.25,566L579,566L579,566.25L578.75,566.25L578.75,566.5L578.5,566.5L578.5,566.75L578.25,566.75L578.25,567L578,567L578,567.5L577.75,567.5L577.75,567.75L577.5,567.75L577.5,568L577.25,568L577.25,568.5L577,568.5L577,569L576.75,569L576.75,569.25L576.5,569.25L576.5,569.75L576.25,569.75L576.25,570L576,570L576,570.75L575.75,570.75L575.75,571.5L575.5,571.5L575.5,572L575.25,572L575.25,572.5L575,572.5L575,573.75L574.75,573.75L574.75,603.25L575,603.25L575,604.5L575.25,604.5L575.25,605L575.5,605L575.5,605.75L575.75,605.75L575.75,606.5L576,606.5L576,607.25L576.25,607.25L576.25,607.5L576.5,607.5L576.5,608L576.75,608L576.75,608.5L577,608.5L577,609L577.25,609L577.25,609.25L577.5,609.25L577.5,609.5L577.75,609.5L577.75,609.75L578,609.75L578,610.25L578.25,610.25L578.25,610.5L578.5,610.5L578.5,610.75L578.75,610.75L578.75,611L579,611L579,611.5L579.25,611.5L579.25,611.75L579.5,611.75L579.5,612L580,612L580,612.25L580.25,612.25L580.25,612.5L580.5,612.5L580.5,612.75L580.75,612.75L580.75,613L581,613L581,613.25L581.5,613.25L581.5,613.5L581.75,613.5L581.75,613.75L582,613.75L582,614L582.5,614L582.5,614.25L582.75,614.25L582.75,614.5L583,614.5L583,614.75L583.5,614.75L583.5,615L584,615L584,615.25L584.75,615.25L584.75,615.5L585,615.5L585,615.75L585.5,615.75L585.5,616L586.25,616L586.25,616.25L587,616.25L587,616.5L587.5,616.5L587.5,616.75L588.25,616.75L588.25,617L590,617L590,617.25L592.5,617.25L592.5,617.5L594.75,617.5L594.75,617.25L596.75,617.25L596.75,617L598.75,617L598.75,616.75L599.75,616.75L599.75,616.5L600.25,616.5L600.25,616.25L601,616.25L601,616L602,616L602,615.75L602.5,615.75L602.5,615.5L602.75,615.5L602.75,615.25L603.25,615.25L603.25,615L604,615L604,614.75L604.25,614.75L604.25,614.5L604.5,614.5L604.5,614.25L605,614.25L605,614L605.5,614L605.5,613.75L605.75,613.75L605.75,613.5L606,613.5L606,613.25L606.25,613.25L606.25,613L606.75,613L606.75,612.75L607,612.75L607,612.5L607.25,612.5L607.25,612.25L607.5,612.25L607.5,612L607.75,612L607.75,611.75L608,611.75L608,611.5L608.25,611.5L608.25,611.25L608.5,611.25L608.5,611L608.75,611L608.75,610.75L609,610.75L609,610.25L609.25,610.25L609.25,610L609.5,610L609.5,609.75L609.75,609.75L609.75,609.5L610,609.5L610,609L610.25,609L610.25,608.75L610.5,608.75L610.5,608.25L610.75,608.25L610.75,608L611,608L611,607.25L611.25,607.25L611.25,606.75L611.5,606.75L611.5,606.25L611.75,606.25L611.75,605.5L612,605.5L612,604.5L612.25,604.5L612.25,603.25L612.5,603.25L612.5,602.25L612.75,602.25L612.75,576L612.5,576L612.5,574.5L612.25,574.5L612.25,573.25L612,573.25L612,572L611.75,572L611.75,571.25L611.5,571.25L611.5,571L611.25,571L611.25,570.25L611,570.25L611,569.75L610.75,569.75L610.75,569.25L610.5,569.25L610.5,569L610.25,569L610.25,568.5L610,568.5L610,568L609.75,568L609.75,567.75L609.5,567.75L609.5,567.5L609.25,567.5L609.25,567.25L609,567.25L609,566.75L608.75,566.75L608.75,566.5L608.5,566.5L608.5,566.25L608.25,566.25L608.25,566L608,566L608,565.75L607.75,565.75L607.75,565.5L607.5,565.5L607.5,565.25L607.25,565.25L607.25,565L607,565L607,564.75L606.5,564.75L606.5,564.5L606.25,564.5L606.25,564.25L606,564.25L606,564L605.75,564L605.75,563.75L605.25,563.75L605.25,563.5L604.75,563.5L604.75,563.25L604.5,563.25L604.5,563L604,563L604,562.75L603.5,562.75L603.5,562.5L603,562.5L603,562.25L602.75,562.25L602.75,562L602,562L602,561.75L601.25,561.75L601.25,561.5L600.75,561.5L600.75,561.25L600.25,561.25L600.25,561L599.5,561L599.5,560.75L598.25,560.75L598.25,560.5L597,560.5L597,560.25L595.25,560.25L595.25,560L592.5,560ZM678.5,563.75L678.25,563.75L678.25,564L678,564L678,582.5L678.25,582.5L678.25,582.75L678.5,582.75L678.5,583L698.25,583L698.25,582.75L700,582.75L700,582.5L700.75,582.5L700.75,582.25L701.25,582.25L701.25,582L702.25,582L702.25,581.75L702.75,581.75L702.75,581.5L703,581.5L703,581.25L703.5,581.25L703.5,581L704,581L704,580.75L704.25,580.75L704.25,580.5L704.5,580.5L704.5,580.25L704.75,580.25L704.75,580L705,580L705,579.75L705.25,579.75L705.25,579.5L705.5,579.5L705.5,579.25L705.75,579.25L705.75,579L706,579L706,578.5L706.25,578.5L706.25,578.25L706.5,578.25L706.5,577.75L706.75,577.75L706.75,577.25L707,577.25L707,576.5L707.25,576.5L707.25,575.25L707.5,575.25L707.5,571.5L707.25,571.5L707.25,570.25L707,570.25L707,569.5L706.75,569.5L706.75,569L706.5,569L706.5,568.5L706.25,568.5L706.25,568L706,568L706,567.5L705.75,567.5L705.75,567.25L705.5,567.25L705.5,567L705.25,567L705.25,566.75L705,566.75L705,566.5L704.75,566.5L704.75,566.25L704.5,566.25L704.5,566L704.25,566L704.25,565.75L703.75,565.75L703.75,565.5L703.5,565.5L703.5,565.25L703.25,565.25L703.25,565L702.75,565L702.75,564.75L702,564.75L702,564.5L701.5,564.5L701.5,564.25L700.75,564.25L700.75,564L699.75,564L699.75,563.75L678.75,563.75ZM770.25,563.75L770,563.75L770,564L769.5,564L769.5,564.5L769.25,564.5L769.25,565L769.5,565L769.5,577L769.25,577L769.25,586.25L769.5,586.25L769.5,613.75L770,613.75L770,614L787,614L787,613.75L789,613.75L789,613.5L790,613.5L790,613.25L791,613.25L791,613L792.25,613L792.25,612.75L793,612.75L793,612.5L793.5,612.5L793.5,612.25L794,612.25L794,612L794.75,612L794.75,611.75L795.25,611.75L795.25,611.5L795.75,611.5L795.75,611.25L796,611.25L796,611L796.75,611L796.75,610.75L797.25,610.75L797.25,610.5L797.5,610.5L797.5,610.25L797.75,610.25L797.75,610L798.25,610L798.25,609.75L798.75,609.75L798.75,609.5L799,609.5L799,609.25L799.25,609.25L799.25,609L799.5,609L799.5,608.75L800,608.75L800,608.5L800.25,608.5L800.25,608.25L800.5,608.25L800.5,608L800.75,608L800.75,607.75L801,607.75L801,607.5L801.25,607.5L801.25,607.25L801.5,607.25L801.5,607L801.75,607L801.75,606.75L802,606.75L802,606.5L802.25,606.5L802.25,606.25L802.5,606.25L802.5,606L802.75,606L802.75,605.75L803,605.75L803,605.25L803.25,605.25L803.25,605L803.5,605L803.5,604.75L803.75,604.75L803.75,604.5L804,604.5L804,604L804.25,604L804.25,603.5L804.5,603.5L804.5,603.25L804.75,603.25L804.75,602.75L805,602.75L805,602.25L805.25,602.25L805.25,601.75L805.5,601.75L805.5,601.5L805.75,601.5L805.75,601L806,601L806,600L806.25,600L806.25,599.5L806.5,599.5L806.5,599L806.75,599L806.75,598.25L807,598.25L807,597.25L807.25,597.25L807.25,596.5L807.5,596.5L807.5,595.75L807.75,595.75L807.75,594.75L808,594.75L808,593L808.25,593L808.25,591.25L808.5,591.25L808.5,586L808.25,586L808.25,584.25L808,584.25L808,582.5L807.75,582.5L807.75,581.25L807.5,581.25L807.5,580.5L807.25,580.5L807.25,580L807,580L807,579L806.75,579L806.75,578.25L806.5,578.25L806.5,578L806.25,578L806.25,577.25L806,577.25L806,576.5L805.75,576.5L805.75,576L805.5,576L805.5,575.75L805.25,575.75L805.25,575.25L805,575.25L805,574.5L804.75,574.5L804.75,574.25L804.5,574.25L804.5,574L804.25,574L804.25,573.5L804,573.5L804,573L803.75,573L803.75,572.75L803.5,572.75L803.5,572.5L803.25,572.5L803.25,572.25L803,572.25L803,571.75L802.75,571.75L802.75,571.5L802.5,571.5L802.5,571.25L802.25,571.25L802.25,571L802,571L802,570.75L801.75,570.75L801.75,570.5L801.5,570.5L801.5,570.25L801.25,570.25L801.25,570L801,570L801,569.75L800.75,569.75L800.75,569.5L800.5,569.5L800.5,569.25L800,569.25L800,569L799.75,569L799.75,568.75L799.5,568.75L799.5,568.5L799,568.5L799,568.25L798.75,568.25L798.75,568L798.5,568L798.5,567.75L798,567.75L798,567.5L797.5,567.5L797.5,567.25L797.25,567.25L797.25,567L796.75,567L796.75,566.75L796.25,566.75L796.25,566.5L795.75,566.5L795.75,566.25L795.5,566.25L795.5,566L795,566L795,565.75L794.25,565.75L794.25,565.5L793.75,565.5L793.75,565.25L793,565.25L793,565L792.25,565L792.25,564.75L791.25,564.75L791.25,564.5L790.25,564.5L790.25,564.25L789.5,564.25L789.5,564L788,564L788,563.75L770.5,563.75Z" fill-rule="evenodd" transform="translate(-25.0913 -188.071) scale(1.38265)"/>
  </g>
</svg>
